<?xml version="1.0" encoding="UTF-8"?>
<svg width="156px" height="156px" viewBox="0 0 156 156" version="1.1" xmlns="http://www.w3.org/2000/svg" xmlns:xlink="http://www.w3.org/1999/xlink">
    <!-- Generator: Sketch 59 (86127) - https://sketch.com -->
    <title>logo</title>
    <desc>Created with Sketch.</desc>
    <g id="logo" stroke="none" stroke-width="1" fill="none" fill-rule="evenodd" opacity="0.4">
        <g id="资产页底部logo" transform="translate(0.000000, 57.000000)" fill="#C9C5EB" fill-rule="nonzero">
            <path d="M146.540395,28.363811 C146.49945,28.3320785 146.442976,28.3320785 146.40203,28.363811 C145.710208,28.9591342 144.965808,29.5175161 144.11625,29.832938 C143.606819,30.0274885 143.063455,30.1107233 142.520908,30.0773188 C142.187228,30.0556233 141.859637,29.9753696 141.552357,29.8400421 C140.828711,29.5146745 140.136889,28.8099482 140.030348,28.0171312 C140.021584,27.9502376 140.041322,27.8827105 140.084512,27.8318302 C140.127702,27.7809498 140.190152,27.7516535 140.255882,27.751438 L147.356745,27.7443339 C147.477087,27.7438121 147.57637,27.6474561 147.583663,27.524107 C147.630707,26.6233077 147.622405,25.7125627 147.398254,24.8430214 C146.910228,22.9419713 145.455893,21.4626698 143.600035,20.979596 C141.744176,20.4965221 139.779207,21.0857903 138.468213,22.5185614 C137.123311,23.9550095 136.723438,26.0038306 137.004318,27.9375653 C137.171739,29.0983745 137.585448,30.249238 138.345069,31.1258833 C139.290098,32.2184932 140.72217,32.8052915 142.144557,32.8408119 C144.431721,32.8962239 146.691212,31.6217492 147.730329,29.5317243 C147.752216,29.4826971 147.739793,29.4247105 147.699889,29.3896424 C147.496493,29.21204 146.839262,28.5783547 146.540395,28.363811 Z M139.968084,25.050461 C140.622548,23.7475699 141.995123,23.008744 143.411975,23.5657051 C144.088467,23.8371067 144.634728,24.3694876 144.933984,25.0490402 C144.950791,25.0880597 144.947303,25.1331513 144.924708,25.168957 C144.902113,25.2047626 144.863458,25.2264538 144.821908,25.2266425 L140.076008,25.2351711 C140.032908,25.2355049 139.992846,25.2124194 139.970671,25.1744675 C139.948496,25.1365156 139.947512,25.0893532 139.968084,25.050461 L139.968084,25.050461 Z" id="形状"></path>
            <path d="M127.199813,12.2417771 L126.061074,12.2417771 C125.935751,12.2417771 125.834156,12.3461012 125.834156,12.4747914 L125.834156,32.5268109 C125.834156,32.6555012 125.935751,32.7598296 126.061074,32.7598296 L128.564087,32.7598296 C128.624382,32.7602063 128.682315,32.735779 128.724951,32.6919975 C128.767587,32.6482159 128.791376,32.5887262 128.791009,32.5268109 L128.791009,13.8771398 C128.791372,13.4435454 128.623891,13.0275807 128.325445,12.7208498 C128.026999,12.4141189 127.622063,12.2417771 127.199813,12.2417771 Z" id="路径"></path>
            <path d="M133.106591,12.2318314 L131.967852,12.2318314 C131.842529,12.2318314 131.740934,12.3361554 131.740934,12.4648457 L131.740934,32.6404764 C131.740934,32.7693986 131.842305,32.8741302 131.967852,32.8749116 L134.470865,32.8749116 C134.596952,32.8749116 134.699166,32.7699514 134.699166,32.6404764 L134.699166,13.8671941 C134.699166,12.9640082 133.986146,12.2318314 133.106591,12.2318314 Z" id="路径"></path>
            <path d="M152.835977,29.3626469 L152.835977,24.6199528 C152.835609,24.527008 152.871307,24.4377404 152.93518,24.3718848 C152.999053,24.3060292 153.08584,24.2690097 153.176353,24.2690105 L154.61396,24.2690105 C154.676621,24.2690105 154.727419,24.2168485 154.727419,24.1525033 L154.727419,21.5708751 C154.72779,21.5089598 154.704002,21.4494701 154.661366,21.4056885 C154.61873,21.361907 154.560796,21.3374797 154.500501,21.3378608 L153.176353,21.3378608 C152.988145,21.3370783 152.835975,21.180185 152.835977,20.9869184 L152.835977,17.6082107 C152.835977,17.4787358 152.733763,17.3737756 152.607676,17.3737756 L150.393844,17.3737756 C150.333422,17.3737756 150.275494,17.398519 150.232898,17.4425254 C150.190303,17.4865319 150.166558,17.5461657 150.166927,17.6082107 L150.166927,20.9869184 C150.166169,21.1804151 150.013601,21.3370821 149.825167,21.3378608 L149.068313,21.3378608 C149.007891,21.3374824 148.949818,21.361865 148.906963,21.4056047 C148.864108,21.4493444 148.840012,21.5088289 148.840012,21.5708751 L148.840012,24.0359962 C148.840773,24.1649159 148.942764,24.2690129 149.068313,24.2690105 L149.825167,24.2690105 C150.013916,24.2690105 150.166927,24.4261327 150.166927,24.6199528 L150.166927,29.7448472 C150.166927,30.5418313 150.475244,31.306173 151.024052,31.8697259 C151.57286,32.4332788 152.317203,32.7498795 153.093335,32.7498795 L155.521631,32.7498795 C155.584292,32.7498795 155.635092,32.6977175 155.635092,32.6333723 L155.635092,31.9542208 C155.637857,29.7434264 152.835977,31.0278468 152.835977,29.3626469 Z" id="路径"></path>
            <path d="M111.773562,14.5577122 L110.042623,14.5577122 C109.393694,14.5577122 108.807028,15.02232 108.559356,15.7355712 L104.902384,26.3348814 C104.881691,26.4149233 104.810236,26.4699437 104.729613,26.4679162 C104.64899,26.4658887 104.580244,26.4073426 104.563391,26.3263565 L101.794719,17.4760745 C101.655324,16.924218 101.179032,16.5322538 100.624155,16.5127592 L100.250571,16.5127592 C99.7004461,16.5285465 99.2256492,16.9132746 99.0827755,17.4590247 L96.1771223,26.3178316 C96.158265,26.3982644 96.0881921,26.4549527 96.0076259,26.4549527 C95.9270596,26.4549527 95.8569867,26.3982644 95.8381294,26.3178316 L92.4343642,15.7710917 C92.1936101,15.0393698 91.6041775,14.5562913 90.9386446,14.5562913 L89.2284601,14.5562913 C89.1928373,14.559075 89.1606412,14.5791313 89.1417803,14.6102879 C89.1229194,14.6414445 89.1196539,14.6799679 89.1329886,14.7140023 L95.1352381,32.8308662 C95.1881505,33.0039373 95.3419378,33.1236594 95.5185076,33.1292382 L96.3902035,33.1292382 C96.5684081,33.1236542 96.7232362,33.0018397 96.7748567,32.8266037 L100.054094,22.9305989 C100.094795,22.7653724 100.239568,22.6496313 100.40554,22.6496313 C100.571511,22.6496313 100.716285,22.7653724 100.756985,22.9305989 L103.911694,32.8209205 C103.961652,32.9993739 104.118362,33.1240868 104.299115,33.1292382 L105.173578,33.1292382 C105.345491,33.1246001 105.496816,33.0115885 105.55408,32.8450744 L111.875952,14.7225272 C111.892695,14.6866496 111.890206,14.6444363 111.869369,14.6108953 C111.848532,14.5773543 111.812303,14.5572432 111.773562,14.5577122 Z" id="路径"></path>
            <path d="M122.606114,20.3986994 L120.133541,20.3986994 C120.074455,20.3971732 120.0172,20.4198219 119.974381,20.4616594 C119.931562,20.5034968 119.90669,20.561093 119.90524,20.6217679 L119.90524,21.312286 C119.901135,21.4023726 119.84707,21.4820545 119.766194,21.517214 C119.685317,21.5523735 119.59197,21.5367765 119.526122,21.477101 C118.455181,20.5298883 117.264324,20.056282 115.953552,20.056282 C114.251669,20.056282 112.834817,20.6748119 111.702996,21.9118717 C110.571175,23.1489315 110.00342,24.694309 109.99973,26.5480043 C109.99973,28.4424297 110.56564,30.018118 111.697462,31.2750693 C112.837585,32.5121291 114.280264,33.130659 116.025501,33.130659 C117.266169,33.130659 118.434426,32.6864163 119.530272,31.7979307 C119.597477,31.743508 119.688679,31.7322552 119.766526,31.7687811 C119.844372,31.805307 119.895784,31.8834755 119.899706,31.9712707 L119.899706,32.5509648 C119.901155,32.6116398 119.926027,32.669236 119.968846,32.7110734 C120.011665,32.7529109 120.06892,32.7755596 120.128007,32.7740334 L122.600579,32.7740334 C122.659666,32.7755596 122.716921,32.7529109 122.75974,32.7110734 C122.802559,32.669236 122.827431,32.6116398 122.828881,32.5509648 L122.828881,20.6160847 C122.822976,20.4942081 122.724948,20.3985486 122.606114,20.3986994 Z M119.08889,29.4834165 C118.422896,30.211823 117.550739,30.5760263 116.472418,30.5760263 C115.511796,30.5982713 114.591018,30.1819733 113.958336,29.4393711 C113.312636,28.6948619 112.989785,27.7291785 112.989785,26.542321 C112.989785,25.4321877 113.322321,24.500604 113.987393,23.7475699 C114.628482,23.0188166 115.546733,22.6127068 116.502859,22.6350686 C117.565497,22.6350686 118.429353,23.0035343 119.094425,23.7404658 C119.759496,24.498236 120.092032,25.4553944 120.092032,26.6119411 C120.092032,27.7684879 119.757651,28.7256463 119.08889,29.4834165 Z" id="形状"></path>
            <path d="M44.1230363,29.9792823 L40.6556234,29.9792823 C40.4747095,29.9792823 40.3012054,29.9054837 40.1732799,29.7741212 C40.0453545,29.6427588 39.9734867,29.4645931 39.9734867,29.2788185 L39.9734867,12.7035433 C39.9738564,12.6103517 39.9379684,12.5208675 39.8737956,12.4549705 C39.8096228,12.3890736 39.7224798,12.3522214 39.6317266,12.3525981 L37.2961348,12.3525981 C37.2053816,12.3522214 37.1182386,12.3890736 37.0540658,12.4549705 C36.989893,12.5208675 36.954005,12.6103517 36.9543718,12.7035433 L36.9543718,32.6120601 C36.9543718,32.7689994 37.0782704,32.8962239 37.2311035,32.8962239 L46.9608923,32.8962239 C46.9616254,32.1228643 46.6629622,31.3809213 46.1306816,30.8338069 C45.598401,30.2866924 44.8761619,29.979282 44.1230363,29.9792823 Z" id="路径"></path>
            <path d="M59.7167087,20.5152065 L57.2427525,20.5152065 C57.1837982,20.5136823 57.1266883,20.5363751 57.0840889,20.5782519 C57.0414895,20.6201287 57.0169219,20.677728 57.0158348,20.7382751 L57.0158348,21.4259515 C57.0110784,21.5160313 56.9567002,21.5954342 56.8757552,21.6304957 C56.7948101,21.6655571 56.7014794,21.6501345 56.6353326,21.5907666 C55.5653143,20.6435538 54.3744577,20.1699475 53.0627628,20.1699475 C51.356268,20.1737363 49.9398774,20.791319 48.8135908,22.0226955 C47.6873043,23.2540721 47.1213937,24.7999232 47.1158591,26.660249 C47.1158591,28.5546744 47.6817697,30.1303628 48.8135908,31.387314 C49.9537138,32.6272155 51.3963937,33.2471662 53.1416305,33.2471662 C54.3832207,33.2471662 55.5510166,32.8029234 56.6450181,31.9144379 C56.7124085,31.8590525 56.804456,31.8474307 56.8829051,31.8844026 C56.9613541,31.9213745 57.0127897,32.000618 57.0158348,32.0891986 L57.0158348,32.6688928 C57.0188571,32.7946792 57.1202419,32.8943443 57.2427525,32.8919614 L59.7167087,32.8919614 C59.8392193,32.8943443 59.9406041,32.7946792 59.9436264,32.6688928 L59.9436264,20.7439584 C59.9436264,20.6825438 59.9195978,20.6237045 59.8769188,20.5806805 C59.8342398,20.5376566 59.776506,20.5140621 59.7167087,20.5152065 L59.7167087,20.5152065 Z M56.1994846,29.5999236 C55.5381026,30.3264358 54.6654842,30.6896919 53.5816294,30.6896919 C52.6210836,30.7115418 51.7004611,30.2953141 51.0675475,29.5530366 C50.4218468,28.8085274 50.0989965,27.8428441 50.0989965,26.6559865 C50.0989965,25.5468004 50.4315323,24.6152167 51.0966041,23.8612354 C51.7362509,23.1306008 52.6541296,22.7223572 53.6106859,22.7430508 C54.6733248,22.7430508 55.5371802,23.1115166 56.2022519,23.8484481 C56.8664012,24.6062182 57.1989371,25.5633767 57.1998614,26.7199234 C57.200782,27.8764701 56.8673237,28.8364702 56.1994846,29.5999236 L56.1994846,29.5999236 Z" id="形状"></path>
            <path d="M69.6955521,20.5578311 C68.1015938,20.6672342 67.2215959,21.1261587 66.1188313,22.0141706 C66.0515624,22.0690349 65.9601013,22.0807661 65.8817568,22.0445788 C65.8034124,22.0083916 65.7512821,21.9303356 65.746631,21.8422515 L65.746631,20.7439584 C65.7455439,20.6834113 65.7209763,20.625812 65.6783769,20.5839351 C65.6357775,20.5420583 65.5786676,20.5193656 65.5197133,20.5208174 L63.0595936,20.5208174 C63.000507,20.5193636 62.9432519,20.5420124 62.900433,20.5838498 C62.8576141,20.6256872 62.832742,20.6832834 62.8312922,20.7439584 L62.8312922,32.6788386 C62.832742,32.7395135 62.8576141,32.7971097 62.900433,32.8389472 C62.9432519,32.8807846 63.000507,32.9034333 63.0595936,32.9019796 L65.5197133,32.9019796 C65.5786676,32.9034314 65.6357775,32.8807386 65.6783769,32.8388618 C65.7209763,32.796985 65.7455439,32.7393857 65.746631,32.6788386 L65.746631,26.479805 C65.8407188,24.6483692 68.2233545,23.6509542 69.7273759,23.5614426 C69.8440339,23.5569387 69.9369533,23.4596519 69.9390735,23.3397948 L69.9390735,20.7823205 C69.9377756,20.7186598 69.9108542,20.6583954 69.8647114,20.6158588 C69.8185686,20.5733223 69.7573276,20.5523144 69.6955521,20.5578311 L69.6955521,20.5578311 Z" id="路径"></path>
            <path d="M77.4965392,25.0774565 C77.4234832,24.9832212 77.4318578,24.8474709 77.5159103,24.7634555 L81.987849,20.339025 C82.0539914,20.2726484 82.0746026,20.1718534 82.0400462,20.0837641 C82.0054899,19.9956747 81.9225936,19.9376955 81.8301135,19.9369332 L80.061816,19.9369332 C79.0482917,19.9370904 78.0759368,20.3487396 77.3567912,21.0821133 L74.7596906,23.7276784 C74.694791,23.7943614 74.5971559,23.8143163 74.5123373,23.7782331 C74.4275187,23.7421499 74.3722316,23.6571394 74.3722702,23.5628634 L74.3722702,12.6452897 C74.3722713,12.5832435 74.3481741,12.5237591 74.3053191,12.4800193 C74.262464,12.4362796 74.2043905,12.411897 74.1439689,12.412271 L71.6838491,12.412271 C71.6235538,12.4118943 71.5656206,12.4363216 71.5229845,12.4801032 C71.4803485,12.5238847 71.4565604,12.5833744 71.4569272,12.6452897 L71.4569272,32.6632095 C71.4565604,32.7251248 71.4803485,32.7846146 71.5229845,32.8283961 C71.5656206,32.8721776 71.6235538,32.8966049 71.6838491,32.8962283 L74.1439689,32.8962283 C74.2043905,32.8966022 74.262464,32.8722197 74.3053191,32.8284799 C74.3481741,32.7847402 74.3722713,32.7252558 74.3722702,32.6632095 L74.3722702,28.5897213 C74.3719301,28.1528479 74.540662,27.7337403 74.8413256,27.4246496 L75.1180545,27.1404858 C75.1640441,27.0928935 75.2277691,27.0679496 75.2929404,27.0720302 C75.3581118,27.0761109 75.4184133,27.1088205 75.458431,27.1617981 L79.0877303,31.9385918 C79.4663793,32.5345327 80.1118851,32.8945328 80.804833,32.8962283 L82.894136,32.8962283 C82.9816355,32.8962283 83.0614555,32.8449616 83.0992809,32.7639404 C83.1371063,32.6829191 83.1261968,32.5867843 83.0712425,32.5168652 L77.4965392,25.0774565 Z" id="路径"></path>
            <path d="M24.439311,10.7769126 C22.6696299,11.1576921 21.4464882,12.0769621 20.4779371,13.3358078 C14.1353112,0.933478127 1.61056208,0.0596744008 0.13836444,0 C0.0619478699,0 0,0.0636122364 0,0.142081907 C0.0110691552,1.24179587 0.13836444,8.43966526 1.79873772,14.6557487 C1.97383824,15.3036218 2.42501601,15.8353456 3.0260303,16.1021425 C9.62878138,19.0773376 14.1173238,24.5048665 15.0166927,30.0858438 L14.9641142,30.3046499 C13.5403441,36.154162 10.6111689,39.491666 8.46098551,41.3870386 C8.42173359,41.4269518 8.40936212,41.4870148 8.42951436,41.53983 C8.4496666,41.5926452 8.49848055,41.628091 8.55368969,41.6299987 C10.30372,41.5608399 12.0318578,41.2059263 13.673174,40.5785926 L13.673174,40.5871175 C13.673174,40.5871175 13.9388337,40.4976059 14.3788326,40.3029537 C18.1146725,38.7102155 22.1659833,35.4409108 24.9139011,29.1978318 C29.5255879,18.7221329 24.7755366,17.2629517 30.4678497,12.4136962 C30.4990778,12.3866999 30.5171033,12.3469213 30.5171033,12.3050035 C30.5171033,12.2630858 30.4990778,12.2233072 30.4678497,12.1963109 C29.8867191,11.7459112 27.5082343,10.1176526 24.439311,10.7769126 Z" id="路径"></path>
        </g>
    </g>
</svg>