<?xml version="1.0" encoding="UTF-8"?>
<svg width="24px" height="24px" viewBox="0 0 24 24" version="1.1" xmlns="http://www.w3.org/2000/svg" xmlns:xlink="http://www.w3.org/1999/xlink">
    <!-- Generator: Sketch 56.2 (81672) - https://sketch.com -->
    <title>Tags/Cards/Selected</title>
    <desc>Created with Sketch.</desc>
    <g id="lark商城" stroke="none" stroke-width="1" fill="none" fill-rule="evenodd">
        <g id="进入商城后-切换钱包" transform="translate(-337.000000, -633.000000)" fill="#5829DB" fill-rule="nonzero">
            <g id="编组" transform="translate(0.000000, 473.000000)">
                <g id="cards/cion-copy-2" transform="translate(15.000000, 79.000000)">
                    <g id="Group-2-Copy" transform="translate(0.000000, 80.000000)">
                        <g id="Tags/Cards/Selected" transform="translate(322.000000, 1.000000)">
                            <path d="M19,18 L9,18 C7.34315436,18 6,16.6568859 6,15 L6,5 L5.97757849,5 C5.7249641,2.19674999 3.36902128,0 0.5,0 C0.331455154,0 0.164681017,0.00758130641 -3.5055292e-14,0.0224215077 L-3.19744231e-14,0 L6,0 L9,0 L21,0 C22.6568456,0 24,1.34313423 24,3 L24,15 L24,24 L23.9775785,24 C23.9924187,23.835319 24,23.6685448 24,23.5 C24,20.6309787 21.80325,18.2750359 19,18.0224215 L19,18 Z M20.117255,5.379 C19.8419396,5.20834228 19.4860671,5.24532886 19.2517651,5.469 L13.685255,10.2839799 L10.922255,8.139 C10.6797987,7.87028859 10.2731678,7.82909396 9.98174497,8.04374497 C9.72398658,8.26868456 9.68341611,8.6543557 9.88874497,8.928 L12.987745,12.4177651 C13.2093624,12.7519329 13.659906,12.8431208 13.9940537,12.6215235 C14.0721191,12.5697582 14.1394246,12.503369 14.192255,12.4260202 L20.0639999,6.1770403 C20.298604,5.97845641 20.3278187,5.62735574 20.129255,5.39275171 C20.1253288,5.38806044 20.1213221,5.38348997 20.117255,5.37900003 Z"></path>
                        </g>
                    </g>
                </g>
            </g>
        </g>
    </g>
</svg>